<!-- Generator: Adobe Illustrator 23.0.6, SVG Export Plug-In  -->
<svg version="1.1" xmlns="http://www.w3.org/2000/svg" xmlns:xlink="http://www.w3.org/1999/xlink" x="0px" y="0px" width="789.5px"
	 height="514.9px" viewBox="0 0 789.5 514.9" style="enable-background:new 0 0 789.5 514.9;" xml:space="preserve">
<style type="text/css">
	.st0{fill:none;stroke:#000000;stroke-width:2.182;stroke-miterlimit:10;}
	.st1{fill:#FFFFFF;}
</style>
<defs>
</defs>
<path class="st0" d="M718.9,1.1H71.5C33.1,1.1,2,32.2,2,70.6l-0.4,245L1.1,444.2c0,38.4,31.2,69.6,69.6,69.6h648.1
	c38.4,0,69.6-31.2,69.6-69.6V322.9V70.6C788.4,32.2,757.3,1.1,718.9,1.1z"/>
<path d="M729.5,264H60c-30.1,0-54.8,22.5-58.4,51.6L1.1,444.2c0,38.4,31.2,69.6,69.6,69.6h648.1c38.4,0,69.6-31.2,69.6-69.6V322.9
	C788.4,290.3,762.1,264,729.5,264"/>
<path d="M360.8,112.8h-28.2c-0.4-2.9-1-5-1.9-6.4c-1.7-2.9-4.5-4.3-8.4-4.3c-2.3,0-4.4,0.7-6.2,2c-2.4,1.7-3.6,4-3.6,6.8
	c0,3.5,2.2,6.6,6.7,9.3c0.9,0.5,6.4,3.1,16.5,7.7c9.3,4.2,15.9,8.8,20,13.7c4,4.9,6,11,6,18.2c0,10.5-3.4,18.8-10.2,24.9
	c-6.8,6.1-16.4,9.2-28.7,9.2c-13.5,0-23.8-3.6-30.9-10.8c-6-6-9.1-13.6-9.5-22.7v-5.4h28.5c0,4.2,0.9,7.5,2.6,10.1
	c2.2,3.3,5.2,4.9,9,4.9c3,0,5.6-1,7.7-3.1c2.1-2.1,3.2-4.6,3.2-7.5c0-5-3.9-9-11.8-12.1c-8.7-3.5-14.5-5.9-17.4-7.4
	c-2.9-1.5-5.9-3.4-8.8-5.7c-3.5-2.7-6.2-6.1-8.2-10.2c-2-4.1-3-8.4-3-12.8c0-11.4,5.4-20.3,16.3-26.8c6.9-4.1,14.4-6.1,22.6-6.1
	c8.8,0,16.6,2.3,23.4,6.8c4.7,3.2,8.1,6.9,10.3,11.2C359,100.4,360.3,105.9,360.8,112.8"/>
<path d="M415,128.7c-6.2,0-11.2,2.1-15.1,6.4c-3.7,4.2-5.6,9-5.6,14.6c0,6.1,2,11.2,5.9,15.2c4,4.1,8.9,6.1,14.9,6.1
	c6.7,0,12-2.4,15.9-7.1c3.3-4.1,5-8.8,5-14.3c0-6.1-2-11.1-5.9-15C426.2,130.8,421.2,128.8,415,128.7 M461,108.2v83.4h-23.6v-9
	c-4,7.9-12.6,11.8-25.8,11.8c-12.5,0-22.7-4.1-30.4-12.2c-7.9-8.4-11.9-19.2-11.9-32.4c0-11.5,3.1-21.1,9.2-28.9
	c8.2-10.5,19.4-15.7,33.7-15.7c12.3,0,20.7,4,25.2,11.9v-8.9H461z"/>
<path d="M615.8,128.7c-6.2,0-11.2,2.1-15.1,6.4c-3.7,4.2-5.6,9-5.6,14.6c0,6.1,2,11.2,5.9,15.2c4,4.1,8.9,6.1,14.9,6.1
	c6.7,0,12-2.4,15.9-7.1c3.3-4.1,5-8.8,5-14.3c0-6.1-2-11.1-5.9-15C627,130.8,621.9,128.8,615.8,128.7 M661.8,108.2v83.4h-23.6v-9
	c-4,7.9-12.6,11.8-25.8,11.8c-12.5,0-22.7-4.1-30.4-12.2c-7.9-8.4-11.9-19.2-11.9-32.4c0-11.5,3.1-21.1,9.2-28.9
	c8.2-10.5,19.4-15.7,33.7-15.7c12.3,0,20.7,4,25.2,11.9v-8.9H661.8z"/>
<path d="M500.4,135.2c3.9-4.3,8.9-6.4,15.1-6.4c6.1,0,11.2,2,15.1,6c3.5,3.5,5.4,7.8,5.8,13c0,0.7,0.1,1.4,0.1,2.1
	c0,5.4-1.7,10.2-5,14.2c-1.6,2-3.6,3.6-5.7,4.8c-2.9,1.6-6.3,2.3-10.2,2.3c-3.8,0-7.1-0.8-10.1-2.4c-1.7-0.9-3.4-2.2-4.8-3.7
	c-4-4.1-5.9-9.2-5.9-15.2c0-0.7,0-1.4,0.1-2.1C495.2,143,497.1,138.8,500.4,135.2 M537.8,108.2v8.9c0,0,0,0,0,0
	c-4.3-7.6-12.2-11.5-23.8-11.8c-0.1,0-0.1,0-0.2,0c-0.4,0-0.8,0-1.1,0c-0.4,0-0.9,0-1.3,0c0,0-0.1,0-0.2,0c-6.6,0.2-12.6,1.5-17.9,4
	c-5.5,2.6-10.3,6.5-14.4,11.7c-6.1,7.8-9.2,17.5-9.2,28.9c0,7.5,1.3,14.3,3.9,20.3c1.9,4.5,4.6,8.6,8,12.2c2.4,2.5,5,4.6,7.8,6.3
	c1.3,0.8,2.6,1.5,3.9,2.1c0,0,0,0,0.1,0c5.5,2.5,11.7,3.8,18.6,3.8c9.3,0,16.4-2,21.1-5.9c1.7-1.4,3.1-3,4.2-4.9
	c0.2-0.3,0.4-0.6,0.5-1c0,0,0,0,0-0.1v5.9h0c0,0.3,0,0.6,0,1c-0.2,4.3-1.6,8.3-3.9,11.6c-4,5.9-10.8,9.7-18.4,9.7
	c-7.6,0-14.4-3.9-18.4-9.7h-3.8h-21.8c3.4,11.8,11.3,21.7,21.8,27.5c6.6,3.7,14.2,5.8,22.3,5.8c8.1,0,15.6-2.1,22.2-5.7
	c10.5-5.8,18.5-15.7,21.9-27.5c1.1-4,1.7-8.2,1.7-12.6v-80.4H537.8z"/>
<path d="M500.4,135.2c3.9-4.3,8.9-6.4,15.1-6.4c6.1,0,11.2,2,15.1,6c3.5,3.5,5.4,7.8,5.8,13c0,0.7,0.1,1.4,0.1,2.1
	c0,5.4-1.7,10.2-5,14.2c-1.6,2-3.6,3.6-5.7,4.8c-2.9,1.6-6.3,2.3-10.2,2.3c-3.8,0-7.1-0.8-10.1-2.4c-1.7-0.9-3.4-2.2-4.8-3.7
	c-4-4.1-5.9-9.2-5.9-15.2c0-0.7,0-1.4,0.1-2.1C495.2,143,497.1,138.8,500.4,135.2 M537.8,108.2v8.9c0,0,0,0,0,0
	c-4.3-7.6-12.2-11.5-23.8-11.8c-0.1,0-0.1,0-0.2,0c-0.4,0-0.8,0-1.1,0c-0.4,0-0.9,0-1.3,0c0,0-0.1,0-0.2,0c-6.6,0.2-12.6,1.5-17.9,4
	c-5.5,2.6-10.3,6.5-14.4,11.7c-6.1,7.8-9.2,17.5-9.2,28.9c0,7.5,1.3,14.3,3.9,20.3c1.9,4.5,4.6,8.6,8,12.2c2.4,2.5,5,4.6,7.8,6.3
	c1.3,0.8,2.6,1.5,3.9,2.1c0,0,0,0,0.1,0c5.5,2.5,11.7,3.8,18.6,3.8c9.3,0,16.4-2,21.1-5.9c1.7-1.4,3.1-3,4.2-4.9
	c0.2-0.3,0.4-0.6,0.5-1c0,0,0,0,0-0.1v5.9h0c0,0.3,0,0.6,0,1c-0.2,4.3-1.6,8.3-3.9,11.6c-4,5.9-10.8,9.7-18.4,9.7
	c-7.6,0-14.4-3.9-18.4-9.7h-3.8h-21.8c3.4,11.8,11.3,21.7,21.8,27.5c6.6,3.7,14.2,5.8,22.3,5.8c8.1,0,15.6-2.1,22.2-5.7
	c10.5-5.8,18.5-15.7,21.9-27.5c1.1-4,1.7-8.2,1.7-12.6v-80.4H537.8z"/>
<polygon points="208.2,116.5 208.2,77.5 167.8,77.5 167.8,116.5 127.7,116.5 127.7,155.2 168.2,155.2 168.2,194.2 208.6,194.2 
	208.6,155.2 248.7,155.2 248.7,116.5 "/>
<path class="st1" d="M150.8,359h10l23.8,54.7H171l-4.7-11.6H145l-4.6,11.6h-13.3L150.8,359z M155.4,374.9l-6.6,17h13.4L155.4,374.9z
	"/>
<path class="st1" d="M217.1,372.4c-1.9-2.5-5.8-3.6-8.7-3.6c-3.4,0-8.1,1.5-8.1,5.6c0,10,25.2,3.6,25.2,22.7c0,12.2-9.8,18-21.1,18
	c-7,0-13.2-2.1-18.4-6.9l8.6-9.4c2.5,3.2,6.5,5.2,10.5,5.2c3.9,0,8.4-1.9,8.4-5.7c0-10.1-25.7-4.6-25.7-22.9
	c0-11.7,10.1-17.8,20.9-17.8c6.2,0,12.1,1.6,16.8,5.7L217.1,372.4z"/>
<path class="st1" d="M261.5,372.4c-1.9-2.5-5.8-3.6-8.7-3.6c-3.4,0-8.1,1.5-8.1,5.6c0,10,25.2,3.6,25.2,22.7c0,12.2-9.8,18-21.1,18
	c-7,0-13.2-2.1-18.4-6.9l8.6-9.4c2.5,3.2,6.5,5.2,10.5,5.2c3.9,0,8.4-1.9,8.4-5.7c0-10.1-25.7-4.6-25.7-22.9
	c0-11.7,10.1-17.8,20.9-17.8c6.2,0,12.1,1.6,16.8,5.7L261.5,372.4z"/>
<rect x="278.7" y="359" class="st1" width="12.1" height="54.7"/>
<polygon class="st1" points="301.7,359 318.1,359 341.4,397.1 341.5,397.1 341.5,359 353.6,359 353.6,413.8 337.8,413.8 
	313.9,374.8 313.8,374.8 313.8,413.8 301.7,413.8 "/>
<path class="st1" d="M382.7,359h10l23.8,54.7h-13.6l-4.7-11.6h-21.3l-4.6,11.6h-13.3L382.7,359z M387.4,374.9l-6.6,17h13.4
	L387.4,374.9z"/>
<polygon class="st1" points="425.5,369.7 409.9,369.7 409.9,359 453.2,359 453.2,369.7 437.5,369.7 437.5,413.8 425.5,413.8 "/>
<path class="st1" d="M505.4,392.6c0,12.9-7.9,22.5-23,22.5c-15.2,0-23.1-9.6-23.1-22.5V359h12.1v33.2c0,6.7,4.6,11.8,11.1,11.8
	c6.3,0,11-5.1,11-11.8V359h12.1V392.6z"/>
<path class="st1" d="M516.6,359h21.2c11.2,0,20.6,3.9,20.6,16.6c0,7.7-4.1,13.6-11.8,15l13.9,23.1H546l-11.4-21.9h-6v21.9h-12.1V359
	z M528.6,381.7h7.1c4.4,0,10.1-0.2,10.1-6.1c0-5.5-4.9-6.3-9.4-6.3h-7.9V381.7z"/>
<path class="st1" d="M584.7,359h10l23.8,54.7h-13.6l-4.7-11.6h-21.3l-4.6,11.6H561L584.7,359z M589.3,374.9l-6.6,17H596L589.3,374.9
	z"/>
<path class="st1" d="M651,372.4c-1.9-2.5-5.8-3.6-8.7-3.6c-3.4,0-8.1,1.5-8.1,5.6c0,10,25.2,3.6,25.2,22.7c0,12.2-9.8,18-21.1,18
	c-7,0-13.2-2.1-18.4-6.9l8.6-9.4c2.5,3.2,6.5,5.2,10.5,5.2c3.9,0,8.3-1.9,8.3-5.7c0-10.1-25.7-4.6-25.7-22.9
	c0-11.7,10.1-17.8,20.9-17.8c6.2,0,12.1,1.6,16.8,5.7L651,372.4z"/>
</svg>
