<!-- Generator: Adobe Illustrator 23.0.6, SVG Export Plug-In  -->
<svg version="1.1" xmlns="http://www.w3.org/2000/svg" xmlns:xlink="http://www.w3.org/1999/xlink" x="0px" y="0px" width="534.1px"
	 height="156.9px" viewBox="0 0 534.1 156.9" style="enable-background:new 0 0 534.1 156.9;" xml:space="preserve">
<style type="text/css">
	.st0{fill:#FFFFFF;}
</style>
<defs>
</defs>
<path class="st0" d="M233.1,35.3h-28.2c-0.4-2.9-1-5-1.9-6.4c-1.7-2.9-4.5-4.3-8.4-4.3c-2.3,0-4.4,0.7-6.2,2c-2.4,1.7-3.6,4-3.6,6.8
	c0,3.5,2.2,6.6,6.7,9.3c0.9,0.5,6.4,3.1,16.5,7.7c9.3,4.2,15.9,8.8,20,13.7c4,4.9,6,11,6,18.2c0,10.5-3.4,18.8-10.2,24.9
	c-6.8,6.1-16.4,9.2-28.7,9.2c-13.5,0-23.8-3.6-30.9-10.8c-6-6-9.1-13.6-9.5-22.7v-5.4h28.5c0,4.2,0.9,7.5,2.6,10.1
	c2.2,3.3,5.2,4.9,9,4.9c3,0,5.6-1,7.7-3.1c2.1-2.1,3.2-4.6,3.2-7.5c0-5-3.9-9-11.8-12.1c-8.7-3.5-14.5-5.9-17.4-7.4
	c-2.9-1.5-5.9-3.4-8.8-5.7c-3.5-2.7-6.2-6.1-8.2-10.2c-2-4.1-3-8.4-3-12.8c0-11.4,5.4-20.3,16.3-26.8c6.9-4.1,14.4-6.1,22.6-6.1
	c8.8,0,16.6,2.3,23.4,6.8c4.7,3.2,8.1,6.9,10.3,11.2C231.3,22.9,232.6,28.4,233.1,35.3"/>
<path class="st0" d="M287.3,51.2c-6.2,0-11.2,2.1-15.1,6.4c-3.7,4.2-5.6,9-5.6,14.6c0,6.1,2,11.2,5.9,15.2c4,4.1,8.9,6.1,14.9,6.1
	c6.7,0,12-2.4,15.9-7.1c3.3-4.1,5-8.8,5-14.3c0-6.1-2-11.1-5.9-15C298.5,53.3,293.5,51.3,287.3,51.2 M333.3,30.7v83.4h-23.6v-9
	c-4,7.9-12.6,11.8-25.8,11.8c-12.5,0-22.7-4.1-30.4-12.2c-7.9-8.4-11.9-19.2-11.9-32.4c0-11.5,3.1-21.1,9.2-28.9
	c8.2-10.5,19.4-15.7,33.7-15.7c12.3,0,20.7,4,25.2,11.9v-8.9H333.3z"/>
<path class="st0" d="M488.1,51.2c-6.2,0-11.2,2.1-15.1,6.4c-3.7,4.2-5.6,9-5.6,14.6c0,6.1,2,11.2,5.9,15.2c4,4.1,8.9,6.1,14.9,6.1
	c6.7,0,12-2.4,15.9-7.1c3.3-4.1,5-8.8,5-14.3c0-6.1-2-11.1-5.9-15C499.3,53.3,494.2,51.3,488.1,51.2 M534.1,30.7v83.4h-23.6v-9
	c-4,7.9-12.6,11.8-25.8,11.8c-12.5,0-22.7-4.1-30.4-12.2c-7.9-8.4-11.9-19.2-11.9-32.4c0-11.5,3.1-21.1,9.2-28.9
	c8.2-10.5,19.4-15.7,33.7-15.7c12.3,0,20.7,4,25.2,11.9v-8.9H534.1z"/>
<path d="M372.6,57.6c3.9-4.3,8.9-6.4,15.1-6.4c6.1,0,11.2,2,15.1,6c3.5,3.5,5.4,7.8,5.8,13c0,0.7,0.1,1.4,0.1,2.1
	c0,5.4-1.7,10.2-5,14.2c-1.6,2-3.6,3.6-5.7,4.8c-2.9,1.6-6.3,2.3-10.2,2.3c-3.8,0-7.1-0.8-10.1-2.4c-1.7-0.9-3.4-2.2-4.8-3.7
	c-4-4.1-5.9-9.2-5.9-15.2c0-0.7,0-1.4,0.1-2.1C367.5,65.5,369.4,61.3,372.6,57.6 M410.1,30.7v8.9c0,0,0,0,0,0
	c-4.3-7.6-12.2-11.5-23.8-11.8c-0.1,0-0.1,0-0.2,0c-0.4,0-0.8,0-1.1,0c-0.4,0-0.9,0-1.3,0c0,0-0.1,0-0.2,0c-6.6,0.2-12.6,1.5-17.9,4
	c-5.5,2.6-10.3,6.5-14.4,11.7c-6.1,7.8-9.2,17.5-9.2,28.9c0,7.5,1.3,14.3,3.9,20.3c1.9,4.5,4.6,8.6,8,12.2c2.4,2.5,5,4.6,7.8,6.3
	c1.3,0.8,2.6,1.5,3.9,2.1c0,0,0,0,0.1,0c5.5,2.5,11.7,3.8,18.6,3.8c9.3,0,16.4-2,21.1-5.9c1.7-1.4,3.1-3,4.2-4.9
	c0.2-0.3,0.4-0.6,0.5-1c0,0,0,0,0-0.1v5.9h0c0,0.3,0,0.6,0,1c-0.2,4.3-1.6,8.3-3.9,11.6c-4,5.9-10.8,9.7-18.4,9.7
	c-7.6,0-14.4-3.9-18.4-9.7h-3.8h-21.8c3.4,11.8,11.3,21.7,21.8,27.5c6.6,3.7,14.2,5.8,22.3,5.8c8.1,0,15.6-2.1,22.2-5.7
	c10.5-5.8,18.5-15.7,21.9-27.5c1.1-4,1.7-8.2,1.7-12.6V30.7H410.1z"/>
<path class="st0" d="M372.6,57.6c3.9-4.3,8.9-6.4,15.1-6.4c6.1,0,11.2,2,15.1,6c3.5,3.5,5.4,7.8,5.8,13c0,0.7,0.1,1.4,0.1,2.1
	c0,5.4-1.7,10.2-5,14.2c-1.6,2-3.6,3.6-5.7,4.8c-2.9,1.6-6.3,2.3-10.2,2.3c-3.8,0-7.1-0.8-10.1-2.4c-1.7-0.9-3.4-2.2-4.8-3.7
	c-4-4.1-5.9-9.2-5.9-15.2c0-0.7,0-1.4,0.1-2.1C367.5,65.5,369.4,61.3,372.6,57.6 M410.1,30.7v8.9c0,0,0,0,0,0
	c-4.3-7.6-12.2-11.5-23.8-11.8c-0.1,0-0.1,0-0.2,0c-0.4,0-0.8,0-1.1,0c-0.4,0-0.9,0-1.3,0c0,0-0.1,0-0.2,0c-6.6,0.2-12.6,1.5-17.9,4
	c-5.5,2.6-10.3,6.5-14.4,11.7c-6.1,7.8-9.2,17.5-9.2,28.9c0,7.5,1.3,14.3,3.9,20.3c1.9,4.5,4.6,8.6,8,12.2c2.4,2.5,5,4.6,7.8,6.3
	c1.3,0.8,2.6,1.5,3.9,2.1c0,0,0,0,0.1,0c5.5,2.5,11.7,3.8,18.6,3.8c9.3,0,16.4-2,21.1-5.9c1.7-1.4,3.1-3,4.2-4.9
	c0.2-0.3,0.4-0.6,0.5-1c0,0,0,0,0-0.1v5.9h0c0,0.3,0,0.6,0,1c-0.2,4.3-1.6,8.3-3.9,11.6c-4,5.9-10.8,9.7-18.4,9.7
	c-7.6,0-14.4-3.9-18.4-9.7h-3.8h-21.8c3.4,11.8,11.3,21.7,21.8,27.5c6.6,3.7,14.2,5.8,22.3,5.8c8.1,0,15.6-2.1,22.2-5.7
	c10.5-5.8,18.5-15.7,21.9-27.5c1.1-4,1.7-8.2,1.7-12.6V30.7H410.1z"/>
<polygon class="st0" points="80.5,38.9 80.5,0 40.1,0 40.1,38.9 0,38.9 0,77.7 40.5,77.7 40.5,116.6 80.9,116.6 80.9,77.7 121,77.7 
	121,38.9 "/>
</svg>
